<?xml version="1.0" encoding="iso-8859-1"?>
<!-- Generator: Adobe Illustrator 18.0.0, SVG Export Plug-In . SVG Version: 6.00 Build 0)  -->
<!DOCTYPE svg PUBLIC "-//W3C//DTD SVG 1.1//EN" "http://www.w3.org/Graphics/SVG/1.1/DTD/svg11.dtd">
<svg version="1.1" id="Capa_1" xmlns="http://www.w3.org/2000/svg" xmlns:xlink="http://www.w3.org/1999/xlink" x="0px" y="0px"
	 viewBox="0 0 165.832 165.832" style="enable-background:new 0 0 165.832 165.832;" xml:space="preserve">
<g>
	<path style="fill:#1D1D1B;" d="M132.282,9.147c-15.921,0-29.278,11.151-32.695,26.05H66.245
		C62.828,20.298,49.471,9.147,33.55,9.147C15.051,9.147,0,24.198,0,42.697s15.051,33.55,33.55,33.55
		c3.744,0,7.343-0.626,10.708-1.763L59.43,99.206c-6.206,6.092-10.065,14.567-10.065,23.929c0,18.5,15.051,33.55,33.551,33.55
		s33.551-15.051,33.551-33.55c0-9.362-3.859-17.837-10.065-23.929l15.171-24.721c3.366,1.137,6.965,1.763,10.709,1.763
		c18.499,0,33.55-15.051,33.55-33.55S150.781,9.147,132.282,9.147z M15,42.697c0-10.229,8.321-18.55,18.55-18.55
		c10.225,0,18.545,8.317,18.55,18.541c0,0.003,0,0.006,0,0.01s0,0.006,0,0.01c-0.005,10.224-8.325,18.541-18.55,18.541
		C23.321,61.248,15,52.926,15,42.697z M82.916,141.685c-10.229,0-18.551-8.322-18.551-18.55s8.322-18.55,18.551-18.55
		s18.551,8.322,18.551,18.55S93.145,141.685,82.916,141.685z M93.625,91.347c-3.365-1.137-6.964-1.763-10.708-1.763
		c-3.744,0-7.343,0.626-10.708,1.763L57.036,66.626c4.497-4.414,7.753-10.081,9.209-16.429h33.342
		c1.456,6.348,4.713,12.015,9.209,16.429L93.625,91.347z M132.282,61.248c-10.225,0-18.545-8.317-18.55-18.541
		c0-0.003,0-0.006,0-0.01s0-0.006,0-0.01c0.005-10.224,8.325-18.541,18.55-18.541c10.229,0,18.55,8.322,18.55,18.55
		S142.511,61.248,132.282,61.248z"/>
</g>
<g>
</g>
<g>
</g>
<g>
</g>
<g>
</g>
<g>
</g>
<g>
</g>
<g>
</g>
<g>
</g>
<g>
</g>
<g>
</g>
<g>
</g>
<g>
</g>
<g>
</g>
<g>
</g>
<g>
</g>
</svg>
